<svg width="24" height="24" viewBox="0 0 24 24" fill="none" xmlns="http://www.w3.org/2000/svg">
<path d="M12 2.40002C6.69687 2.40002 2.39999 6.6969 2.39999 12C2.39999 16.4969 5.49687 20.2625 9.67499 21.3031C9.62812 21.175 9.59999 21.025 9.59999 20.8375V19.1969C9.20937 19.1969 8.55624 19.1969 8.39374 19.1969C7.73749 19.1969 7.15312 18.9156 6.86874 18.3906C6.55624 17.8063 6.49999 16.9156 5.72187 16.3688C5.49062 16.1875 5.66562 15.9813 5.93124 16.0094C6.42499 16.1469 6.83124 16.4844 7.21562 16.9844C7.59999 17.4875 7.77812 17.6 8.49374 17.6C8.84062 17.6 9.35937 17.5813 9.84687 17.5031C10.1094 16.8375 10.5625 16.225 11.1156 15.9344C7.91874 15.6063 6.39374 14.0156 6.39374 11.8563C6.39374 10.925 6.79062 10.0281 7.46249 9.26878C7.24374 8.51878 6.96562 6.9844 7.54687 6.40002C8.98749 6.40002 9.85624 7.33127 10.0656 7.5844C10.7812 7.34065 11.5687 7.20002 12.3969 7.20002C13.225 7.20002 14.0156 7.34065 14.7344 7.58752C14.9406 7.33752 15.8094 6.40002 17.2531 6.40002C17.8375 6.9844 17.5562 8.52502 17.3344 9.27502C18.0031 10.0313 18.3969 10.9281 18.3969 11.8563C18.3969 14.0125 16.8719 15.6031 13.6812 15.9344C14.5594 16.3906 15.2 17.6813 15.2 18.65V20.8375C15.2 20.9219 15.1812 20.9813 15.1719 21.0531C18.9125 19.7406 21.6 16.1875 21.6 12C21.6 6.6969 17.3031 2.40002 12 2.40002Z" fill="#E1E1E6"/>
</svg>
