<svg width="24" height="24" viewBox="0 0 24 24" fill="none" xmlns="http://www.w3.org/2000/svg">
<path d="M12 2.40002C6.69687 2.40002 2.39999 6.6969 2.39999 12C2.39999 17.3031 6.69687 21.6 12 21.6C17.3031 21.6 21.6 17.3031 21.6 12C21.6 6.6969 17.3031 2.40002 12 2.40002ZM8.39687 6.7219C9.07187 6.7219 9.51874 7.1719 9.51874 7.76878C9.51874 8.36878 9.07187 8.81565 8.32187 8.81565C7.64999 8.81878 7.19999 8.36878 7.19999 7.76878C7.19999 7.1719 7.64999 6.7219 8.39687 6.7219ZM9.59999 16H7.19999V9.60002H9.59999V16ZM17.6 16H15.3406V12.5031C15.3406 11.5344 14.7375 11.3125 14.5125 11.3125C14.2875 11.3125 13.5344 11.4594 13.5344 12.5031C13.5344 12.65 13.5344 16 13.5344 16H11.2V9.60002H13.5344V10.4938C13.8344 9.9719 14.4375 9.60002 15.5687 9.60002C16.6969 9.60002 17.6 10.4938 17.6 12.5031V16Z" fill="#E1E1E6"/>
</svg>
